<?xml version="1.0" encoding="utf-8"?><!DOCTYPE svg PUBLIC "-//W3C//DTD SVG 1.1//EN" "http://www.w3.org/Graphics/SVG/1.1/DTD/svg11.dtd"><svg version="1.1" xmlns="http://www.w3.org/2000/svg" xmlns:xlink="http://www.w3.org/1999/xlink" x="0px" y="0px" xml:space="preserve" height="610" width="612"><rect fill="#FFCD05" width="300" height="610"/><path d="M119.9,572.2H29L15.8,532h53.1l0.3-147h50.7V572.2z"/><path d="m 144.8,532 81,0 0.3,-34.2 -69.3,0 c -14.8,0 -23.7,-6.3 -26.7,-18.9 0,0 0.0125,-72.3159 0,-72.3 0,-7.17539 4.6,-13.4 9,-16.8 4.4,-3.4 10.3,-5.1 17.7,-5.1 l 122.4,0 c 0,0 -14.5166,40.58014 -14.4,40.5 l 0,0.10387 -81,-0.10387 0,33.3 69,-0.3 c 7.4,0 13.3,1.7 17.7,5.1 4.4,3.4 7.4,9 9,16.8 0.16725,1.16395 0.23049,1.46116 0.3,2.6 0,0 0,59.85159 0,69.9 -1.22299,12.92309 -11.9,19.59227 -26.7,20.4 -13.90803,0 -123,0 -123,0 z"/><path d="m 480.5,297.69521 0.8,29.81955 -45.1,24.71621 v 214.64075 l 102.8,-84.45538 13.7,-233.25295 -72.2,48.53182 0,0 z M 70.6,482.41634 M 299.2,610 384,609.6998 351.6,526.14501 299.1,525.84482 m 5.7,-9.6063 m -5.6,0.20013 56.8,-0.10007 34.6,89.55873 39.7,-35.2231 -1.7,-213.33989 -74.2,-34.12238 -1.8,145.69554 -53.3,-0.3002 m 5.5,-7.20472 m -5.6,0.20013 46.7,-0.20013 V 318.00853 l 20.2,-129.08465 -67,43.02822 m 0.1,-10.40682 181.4,-120.37894 9.2,-59.539043 -13,-5.703741 -5.3,-2.601706 -5.3,-2.50164 -5.2,-2.401575 -5.3,-2.301509 -5.2,-2.201444 -5.2,-2.001312 -5.3,-2.001312 -5.2,-1.901247 -5.3,-1.701115 -5.2,-1.701116 -5.1,-1.500984 -5.2,-1.400919 -5.2,-1.400918 -5.1,-1.2007879 -4.9,-1.300853 -5.5,-1.1007218 -5.5,-1.1007218 -5.8,-0.9005905 -5.8,-0.8005249 -6,-0.800525 -3,-0.4002624 -3,-0.3001969 -6.3,-0.6003937 -6.3,-0.5003281 -5.3,-0.40026245 -2.7,-0.10006562 -2.7,-0.10006561 -2.8,-0.10006562 -2.8,-0.10006562 -5.9,-0.10006561 -3,-0.10006562 -3.1,-0.10006562 -3.1,-0.10006561 H 317 L 313.8,0 h -3.3 -5.6 l 0,0 h -5.6 m -62.4,183.02001 m 303.9,-67.54429 -1.9,12.20801 -123.9,84.05512 0.8,-11.40749 125,-84.85564 0,0 z m -8.5,53.13484 -1.7,10.80709 -119,80.85302 0.7,-10.10663 120,-81.55348 0,0 z M 612,34.122375 498.6,42.527887 484.4,106.06955 372.7,182.91995 354.3,311.80446 481.8,290.89075 569,228.14961 612,34.122375 l 0,0 z"/></svg>
