<?xml version="1.0" encoding="utf-8"?><!DOCTYPE svg PUBLIC "-//W3C//DTD SVG 1.1//EN" "http://www.w3.org/Graphics/SVG/1.1/DTD/svg11.dtd"><svg version="1.1" xmlns="http://www.w3.org/2000/svg" xmlns:xlink="http://www.w3.org/1999/xlink" x="0px" y="0px" xml:space="preserve" height="610" width="612"><rect fill="#FFCD05" width="300" height="610"/><path d="M119.9,572.2H29L15.8,532h53.1l0.3-147h50.7V572.2z"/><path d="M144.8,532h81l0.3-34.2h-69.3c-14.8,0-23.7-6.3-26.7-18.9c0-3.2,0-6.6,0.2-10.2c0.1-3.6,0.1-7,0.1-10.2h-0.3v-51.9c1.6-7.8,4.6-13.4,9-16.8c4.4-3.4,10.3-5.1,17.7-5.1h122.4c-3,8.8-5.7,16.5-8.1,23c-2.4,6.5-4.5,12.4-6.3,17.5v-0.3h-30v0.3h-51v33.3l69-0.3c7.4,0,13.3,1.7,17.7,5.1c4.4,3.4,7.4,9,9,16.8c0,0.4-0.1,0.9-0.2,1.3c-0.1,0.5-0.1,1-0.1,1.3h0.6v69.9c-3,12.6-11.9,18.9-26.7,18.9l-38.7,0.6v0.3l-84.3,0.6L144.8,532z"/><path d="M480.5,297.7l0.8,29.8l-45.1,24.7v214.5L539,482.3l13.7-233.1L480.5,297.7L480.5,297.7zM70.6,482.3M299.2,609.8l84.8-0.3l-32.4-83.5l-52.5-0.3M304.8,516.1M299.2,516.3l56.8-0.1l34.6,89.5l39.7-35.2l-1.7-213.2l-74.2-34.1l-1.8,145.6l-53.3-0.3M304.8,461.3M299.2,461.5l46.7-0.2V318l20.2-129l-67,43M299.2,221.6l181.4-120.3l9.2-59.5l-13-5.7l-5.3-2.6l-5.3-2.5l-5.2-2.4l-5.3-2.3l-5.2-2.2l-5.2-2l-5.3-2l-5.2-1.9l-5.3-1.7l-5.2-1.7l-5.1-1.5l-5.2-1.4l-5.2-1.4l-5.1-1.2L398.8,8l-5.5-1.1l-5.5-1.1L382,4.9l-5.8-0.8l-6-0.8l-3-0.4l-3-0.3l-6.3-0.6l-6.3-0.5l-5.3-0.4L343.6,1l-2.7-0.1l-2.8-0.1l-2.8-0.1l-5.9-0.1l-3-0.1l-3.1-0.1l-3.1-0.1H317l-3.2-0.1h-3.3h-5.6l0,0h-5.6M236.9,183.1M540.8,115.6l-1.9,12.2L415,211.8l0.8-11.4L540.8,115.6L540.8,115.6zM532.3,168.7l-1.7,10.8l-119,80.8l0.7-10.1L532.3,168.7L532.3,168.7zM612,34.3l-113.4,8.4l-14.2,63.5l-111.7,76.8l-18.4,128.8l127.5-20.9l87.2-62.7L612,34.3L612,34.3z"/></svg>